<?xml version="1.0" encoding="UTF-8" standalone="no"?><svg viewBox="0 0 773.28089 643.73175" height="288.525251928" width="346.590114147" version="1.1" xmlns="http://www.w3.org/2000/svg" xmlns:svg="http://www.w3.org/2000/svg"><path style="fill:#fdb414;stroke-width:0.32" d="M 71.454009,259.47146 C 32.345682,231.63003 0.34168093,208.75647 0.33400899,208.64132 0.32265622,208.47093 39.873503,180.28498 135.36006,112.41488 l 7.84,-5.57253 -37.6,37.88158 c -60.969392,61.42598 -62.72,63.19835 -62.72,63.4994 0,0.15853 2.993904,3.31654 6.65312,7.01779 6.718906,6.7961 29.220061,29.66324 66.13388,67.20956 27.97038,28.44964 27.2199,27.68215 27.04778,27.66078 -0.0851,-0.0106 -32.1525,-22.79858 -71.260831,-50.64 z"/><path style="fill:#0b0859;stroke-width:0.32;fill-opacity:1" d="m 225.18174,391.84194 -27.5817,-27.4728 3.2,-0.9053 c 44.6605,-12.636 77.6242,-25.5946 92.982,-36.5529 3.9242,-2.8 7.368,-6.3541 8.6187,-8.8947 0.9561,-1.9421 1.043,-2.3774 1.0795,-5.4118 0.039,-3.2252 0.012,-3.3573 -1.2116,-5.8475 -1.0404,-2.1179 -1.8502,-3.1433 -4.8,-6.0782 -4.1433,-4.1221 -7.8656,-6.7192 -14.6809,-10.2431 -5.9203,-3.0611 -8.34,-4.1104 -20.2277,-8.7717 -22.9865,-9.0133 -39.3501,-16.1048 -63.4378,-27.492 -6.3788,-3.0155 -11.6647,-5.4828 -11.7463,-5.4828 -0.082,0 -2.7106,-1.1987 -5.8422,-2.6639 -18.6116,-8.7081 -29.5566,-17.4601 -34.3143,-27.439 -1.7186,-3.6047 -2.3709,-6.263 -2.35,-9.5771 0.087,-13.7675 17.9766,-28.6568 52.5706,-43.7538 20.4318,-8.9165 83.6601,-37.1785 85.4922,-38.2135 8.2906,-4.6837 14.5945,-10.4178 17.1679,-15.6161 1.1112,-2.2445 1.1799,-2.5614 1.1799,-5.44 0,-2.7556 -0.094,-3.2414 -0.9513,-4.9342 -1.1396,-2.249002 -3.5215,-4.764602 -7.2087,-7.613002 -16.0364,-12.3884 -42.6986,-24.1004 -81.4424,-35.7754 -10.1958,-3.0724 -12.6802,-3.9013 -12.5638,-4.1921 0.047,-0.1185 11.8888,-12.1784 26.3141,-26.7998 l 26.228,-26.58439955 13.7756,13.66119955 c 7.5766,7.5136 54.9981,54.4009 105.3811,104.194002 50.383,49.7931 91.5654,90.6283 91.5165,90.745 -0.1605,0.3822 -208.9054,210.3992 -209.2398,210.5149 -0.1793,0.062 -12.7377,-12.2499 -27.9076,-27.36 z"/><path style="fill:#0b0859;stroke-width:0.32;fill-opacity:1" d="m 357.14494,588.37244 c -1.1303,-0.2558 -2.2028,-0.6127 -2.3833,-0.7931 -0.2241,-0.2241 -0.092,-1.5536 0.417,-4.1952 0.6988,-3.6267 0.7873,-3.856 1.4233,-3.6874 2.6738,0.7088 5.784,0.925 8.1081,0.5637 6.5595,-1.0198 10.4795,-4.9006 13.7001,-13.5632 l 1.0381,-2.7924 -12.6112,-32.7276 c -6.9363,-18.0001 -12.823,-33.2675 -13.0816,-33.9275 l -0.4702,-1.2 h 5.3687 5.3687 l 10.1847,26.64 c 5.6015,14.652 10.2883,26.7526 10.415,26.8902 0.1267,0.1377 4.459,-11.8503 9.6275,-26.64 l 9.3971,-26.8902 h 5.0424 5.0423 l -0.4894,1.36 c -0.2692,0.748 -5.8189,16.552 -12.3326,35.12 -13.1922,37.6055 -13.7118,39.0452 -15.0689,41.76 -3.5759,7.1528 -9.1159,12.0004 -15.7607,13.791 -2.7079,0.7297 -10.248,0.8997 -12.9351,0.2917 z m 375.8423,-0.021 c -13.0771,-1.7804 -20.4077,-7.6785 -20.4603,-16.4621 -0.014,-2.2762 0.1182,-3.0072 0.8085,-4.48 1.534,-3.2731 3.7627,-5.2895 8.708,-7.8784 l 2.5235,-1.3211 -2.3083,-1.213 c -4.4161,-2.3206 -6.2396,-4.8375 -6.2505,-8.6275 -0.01,-3.2801 0.8104,-4.7156 5.0158,-8.7818 1.9009,-1.838 3.4561,-3.4585 3.4561,-3.601 0,-0.1426 -0.9265,-1.4309 -2.0588,-2.863 -2.391,-3.0237 -4.1155,-6.2898 -4.8758,-9.2342 -0.7876,-3.0501 -0.7114,-9.3193 0.1523,-12.526 2.4111,-8.9522 9.4912,-15.209 19.1453,-16.9189 3.3179,-0.5877 9.5704,-0.2622 12.437,0.6475 2.2885,0.7262 5.4468,2.1947 6.88,3.199 0.7902,0.5537 0.8338,0.5401 3.5496,-1.1015 3.461,-2.0921 7.2333,-3.3593 10.7362,-3.6065 l 2.6742,-0.1887 v 4.3675 4.3676 h -3.3263 c -2.4441,0 -3.8869,0.1731 -5.44,0.6528 -1.1625,0.3591 -2.1137,0.708 -2.1137,0.7754 0,0.067 0.5647,1.1777 1.2548,2.4672 2.2414,4.1878 2.7461,6.4186 2.739,12.1046 -0.01,4.7306 -0.052,5.0896 -1.0031,7.7635 -1.391,3.9119 -2.7462,6.0575 -5.7107,9.0411 -3.9465,3.9719 -8.6274,6.1 -14.75,6.7057 -2.8823,0.2851 -7.8831,-0.3002 -10.9938,-1.2868 -1.8794,-0.5961 -2.4887,-0.6761 -2.88,-0.3783 -4.0596,3.0905 -5.4562,4.8277 -5.4562,6.787 0,3.0389 2.1779,3.7389 15.52,4.9886 11.4796,1.0752 17.2703,2.3042 22.1735,4.7062 6.704,3.2842 10.1318,9.7005 9.0567,16.953 -1.2462,8.4066 -7.9504,13.3079 -20.4857,14.9769 -4.2473,0.5654 -14.4475,0.5465 -18.7173,-0.035 z m 14.0835,-7.1834 c 7.3128,-0.5579 12.0016,-2.197 14.6222,-5.1116 1.6638,-1.8507 2.2893,-3.728 2.0806,-6.2449 -0.2,-2.4116 -1.3545,-3.8047 -4.4393,-5.3565 -3.0848,-1.5518 -5.6217,-2.0206 -15.9448,-2.9464 -9.3201,-0.8359 -9.5638,-0.8191 -14.0892,0.971 -7.7576,3.0688 -10.3464,9.146 -5.9144,13.8841 2.5898,2.7688 7.261,4.3073 14.5342,4.7872 2.024,0.1335 3.968,0.2639 4.32,0.2898 0.352,0.026 2.5258,-0.097 4.8307,-0.2727 z m 0.6769,-47.7526 c 4.2767,-1.5074 7.5885,-4.7843 9.0525,-8.9574 0.8856,-2.5243 1.2083,-7.7141 0.6571,-10.5675 -0.4776,-2.4726 -2.1563,-6.0459 -3.6657,-7.8027 -5.1658,-6.0125 -16.0481,-6.4531 -22.2246,-0.8999 -3.6126,3.248 -5.4893,7.6422 -5.4831,12.8378 0.01,5.2743 1.3862,8.8995 4.6142,12.1227 3.2397,3.235 6.2374,4.3363 11.382,4.1814 2.5923,-0.078 3.8873,-0.287 5.6676,-0.9144 z m 14.1724,-30.5835 c 0,-0.1414 -0.504,-0.7457 -1.12,-1.3427 -1.271,-1.232 -1.427,-1.0525 -0.4539,0.5222 0.5988,0.9688 1.5739,1.4772 1.5739,0.8205 z m -2.8735,-3.095 c -0.2227,-0.2683 -0.6392,-0.4829 -0.9256,-0.4771 -0.4029,0.01 -0.3475,0.155 0.2445,0.648 0.8496,0.7075 1.3135,0.5911 0.6811,-0.1709 z m -629.1265,66.8946 c -7.5555,-1.6038 -13.2565,-6.3711 -15.742,-13.164 -0.9518,-2.6014 -1.1805,-8.4459 -0.4447,-11.3651 1.6357,-6.4898 5.8975,-11.1361 13.7867,-15.0307 4.8959,-2.4168 10.6192,-4.2874 20.6522,-6.7498 l 7.9878,-1.9605 v -3.3127 c 0,-3.6192 -0.5151,-5.5414 -2.0963,-7.8232 -1.8959,-2.7357 -6.1461,-4.6895 -10.8919,-5.007 -7.0531,-0.4717 -12.9434,2.3905 -18.7052,9.0893 l -1.4266,1.6586 -3.52,-2.3892 c -1.936,-1.314 -3.5627,-2.5125 -3.6148,-2.6632 -0.1701,-0.4913 3.7575,-4.7589 6.1544,-6.6872 6.6431,-5.344 12.5506,-7.3324 20.8204,-7.0078 6.4319,0.2525 11.3218,1.8399 16.0411,5.2075 3.7212,2.6555 6.6813,7.2312 7.4409,11.5027 0.21,1.1806 0.3981,10.5459 0.4884,24.32 0.1526,23.2728 0.2402,24.8482 1.5876,28.56 l 0.4936,1.36 h -5.7111 c -6.6456,0 -5.8181,0.6465 -6.4505,-5.04 -0.2202,-1.98 -0.5019,-3.6 -0.626,-3.6 -0.1241,0 -1.2548,0.862 -2.5128,1.9156 -4.7595,3.9863 -9.5266,6.7212 -13.6312,7.82 -2.7234,0.7291 -7.5462,0.9045 -10.08,0.3667 z m 10.1088,-9.469 c 4.6999,-1.2008 10.6784,-4.8257 14.6157,-8.8618 l 1.5246,-1.5627 -0.084,-10.25 -0.084,-10.25 -6.2824,1.6636 c -8.0906,2.1422 -11.8865,3.3917 -15.5901,5.1318 -7.3171,3.4377 -10.5689,7.1798 -10.8609,12.4983 -0.1687,3.0711 0.3621,5.0175 1.9941,7.313 3.2179,4.5261 8.2241,5.9897 14.7681,4.3178 z m 167.0955,9.6174 c -5.0442,-0.92 -8.986,-3.0668 -13.4343,-7.3168 l -2.49,-2.3789 v 4.0425 4.0425 h -5.28 -5.28 v -48.8 -48.8001 h 5.2773 5.2774 l 0.083,17.8401 0.083,17.84 1.44,-1.2966 c 3.3697,-3.034 6.7747,-5.159 10.6366,-6.6381 2.5296,-0.9687 2.8431,-1.0123 7.2834,-1.0109 4.3722,0 4.8012,0.059 7.4333,0.9931 6.9547,2.4689 12.072,7.0698 15.6658,14.0849 2.939,5.737 4.3705,11.9277 4.6506,20.1122 0.2917,8.5246 -0.8341,15.0567 -3.6036,20.9078 -1.8547,3.9188 -3.6919,6.4462 -6.7985,9.3527 -3.6385,3.4041 -6.9695,5.2556 -11.7673,6.5405 -2.2884,0.6128 -7.0852,0.8664 -9.1761,0.4851 z m 7.0009,-9.0151 c 5.7995,-2.1699 10.1376,-7.6938 12.1534,-15.4756 1.1276,-4.3532 1.4219,-12.933 0.6284,-18.3248 -1.7239,-11.7143 -6.5812,-19.163 -13.739,-21.0689 -2.1651,-0.5764 -5.942,-0.5562 -8.495,0.046 -4.4236,1.0428 -9.3719,4.6396 -12.1914,8.8618 l -1.2816,1.9192 v 15.9139 15.9139 l 1.3094,2.0497 c 0.7202,1.1272 2.2682,3.0343 3.44,4.2378 5.9134,6.0733 12.2568,8.142 18.1758,5.9274 z m 269.3147,9.006 c -14.0313,-1.9847 -22.5067,-11.2271 -25.0906,-27.3616 -0.6312,-3.9414 -0.5245,-14.9421 0.183,-18.88 2.508,-13.9578 9.4184,-22.3394 21.0173,-25.4919 2.3487,-0.6384 3.4424,-0.7313 8.6104,-0.7313 5.1681,0 6.2618,0.093 8.6105,0.7313 11.6106,3.1557 18.4819,11.4876 21.0228,25.4919 0.7239,3.9896 0.8264,15.3203 0.1723,19.04 -2.2487,12.7867 -7.6428,20.8704 -16.5743,24.839 -4.6734,2.0765 -12.5991,3.1197 -17.9514,2.3626 z m 10.2352,-8.5954 c 8.6207,-2.3904 13.5032,-11.0338 14.216,-25.1662 0.5531,-10.9662 -2.1503,-20.8938 -7.0411,-25.8574 -4.1551,-4.2169 -10.4949,-5.9173 -16.9571,-4.5481 -6.0459,1.281 -10.4053,5.2878 -12.9541,11.9066 -3.9621,10.2887 -3.1965,27.1188 1.62,35.6122 2.1467,3.7854 6.2841,7.0397 10.3824,8.1664 2.3873,0.6563 8.1787,0.5951 10.7339,-0.1135 z M 2.8800385,516.36924 v -48.8001 h 9.6996995 9.6998 l 12.1119,39.9201 c 6.6615,21.956 12.2303,40.0544 12.3749,40.2186 0.1447,0.1643 0.3407,0.221 0.4356,0.1262 0.095,-0.095 5.5415,-18.1573 12.1036,-40.1387 l 11.931,-39.9662 9.9818,-0.084 9.9817,-0.085 v 48.8046 48.8046 h -5.92 -5.92 v -44.224 c 0,-25.3049 -0.1198,-44.094 -0.2801,-43.92 -0.1541,0.1672 -6.3756,20.068 -13.8256,44.224 l -13.5454,43.92 h -4.7096 -4.7096 l -0.3305,-1.04 c -0.1818,-0.572 -6.1027,-19.76 -13.1576,-42.64 -14.9469,-48.4748 -13.735,-44.6401 -14.1073,-44.6401 -0.1776,0 -0.2943,17.5061 -0.2943,44.1601 v 44.16 h -5.7599995 -5.76 z m 188.1600015,14.24 v -34.56 h 5.2742 5.2742 l 0.086,7.6 0.086,7.6 1.3879,-2.4899 c 2.9878,-5.3603 6.9241,-9.7119 10.3795,-11.4747 3.0584,-1.5603 4.7434,-1.9443 9.2726,-2.1133 l 4.4,-0.1642 v 4.361 4.3611 h -2.4927 c -4.7504,0 -8.5926,1.5921 -12.3556,5.12 -3.2385,3.036 -5.6998,6.5489 -8.38,11.9601 l -2.3717,4.7884 v 19.7857 19.7858 h -5.28 -5.28 z m 55.04,0 v -34.56 h 5.28 5.28 v 34.56 34.56 h -5.28 -5.28 z m 184.32,0 v -34.56 h 5.2742 5.2742 l 0.086,7.6 0.086,7.6 0.9258,-1.6 c 3.544,-6.1251 6.2798,-9.3835 9.7759,-11.6431 3.1182,-2.0154 5.5016,-2.6599 10.4983,-2.8391 l 4.24,-0.152 v 4.3571 4.3571 h -2.4927 c -5.0874,0 -8.7055,1.6136 -12.9092,5.7574 -3.2408,3.1946 -5.6704,6.7932 -8.305,12.3008 l -1.8931,3.9574 v 19.7122 19.7122 h -5.28 -5.28 z m 54.72,0 v -34.56 h 5.2695 5.2696 l 0.09,3.5429 0.091,3.5429 2.6925,-1.9452 c 5.3332,-3.853 9.869,-6.0558 13.9189,-6.7598 2.7466,-0.4775 9.0358,-0.2148 11.1635,0.4662 5.8606,1.8759 9.571,6.0311 11.5041,12.8835 0.7018,2.4875 0.7089,2.7499 0.8063,29.9495 l 0.098,27.44 h -5.2834 -5.2833 l -0.088,-27.92 c -0.088,-27.8409 -0.09,-27.9249 -0.7849,-29.619 -1.0258,-2.5023 -2.1174,-3.7433 -4.1806,-4.7527 -1.6445,-0.8046 -2.1687,-0.8987 -4.8826,-0.8758 -2.483,0.021 -3.4804,0.1874 -5.4404,0.908 -4.3339,1.5934 -8.8958,4.4325 -12.5328,7.7997 l -1.8672,1.7287 v 26.3655 26.3656 h -5.28 -5.28 z m 155.2,0 v -34.56 h 5.28 5.28 v 3.5472 3.5472 l 1.52,-1.1064 c 8.2667,-6.0176 12.9522,-7.908 19.6,-7.908 11.2579,0 17.3623,5.7962 18.8639,17.9116 0.209,1.6861 0.3361,12.2445 0.3361,27.92 v 25.2084 h -5.28 -5.28 l -0.01,-26.64 c -0.01,-28.3518 -0.047,-29.2076 -1.5596,-32.1717 -1.8557,-3.6376 -6.5749,-5.2854 -11.7148,-4.0907 -4.343,1.0096 -10.9416,4.8289 -15.12,8.7516 l -1.36,1.2768 v 26.437 26.437 h -5.28 -5.28 v -34.56 z m -394.24,-56.6401 v -6.08 h 5.28 5.28 v 6.08 6.08 h -5.28 -5.28 z"/><path style="fill:#0b0859;stroke-width:0.32;fill-opacity:1" d="m 385.02864,642.66304 c -5.6997,-2.0278 -9.3716,-7.5046 -10.3265,-15.4017 -1.4294,-11.8234 3.7451,-21.2959 12.4488,-22.7884 5.7063,-0.9785 10.8124,1.4605 13.4344,6.417 0.9502,1.7964 1.7597,4.2025 1.5008,4.4613 -0.075,0.075 -0.9175,0.3182 -1.8721,0.54 l -1.7354,0.4035 -0.3953,-1.322 c -0.9916,-3.3161 -3.1493,-6.0817 -5.513,-7.0664 -2.9866,-1.2442 -7.2178,-0.2532 -9.6694,2.2646 -3.1432,3.2281 -4.7183,9.7598 -4.0223,16.6798 0.7613,7.5688 3.8286,12.1676 8.8046,13.2006 4.6286,0.9609 8.5473,-1.7009 10.2474,-6.9606 0.2987,-0.924 0.6595,-1.68 0.8018,-1.68 0.1423,0 1.0041,0.172 1.915,0.3823 1.6438,0.3794 1.6549,0.3902 1.4827,1.4513 -0.5493,3.385 -3.473,7.1271 -6.8779,8.8033 -1.8727,0.9219 -2.4368,1.0413 -5.3136,1.1243 -2.5147,0.073 -3.5885,-0.039 -4.91,-0.5089 z m 141.6391,-0.01 c -2.4311,-0.8012 -3.6934,-1.6238 -5.6228,-3.6639 -1.8649,-1.9719 -2.9125,-3.8877 -3.9738,-7.2678 -0.6684,-2.1285 -0.7511,-3.0087 -0.7511,-7.992 0,-5.29 0.05,-5.7537 0.9102,-8.3766 1.6499,-5.0332 4.7316,-8.6336 8.7398,-10.2108 1.4936,-0.5877 2.5141,-0.7391 5.07,-0.7525 2.8505,-0.015 3.4082,0.081 5.1065,0.8744 2.6779,1.2515 3.9018,2.2711 5.2731,4.3928 1.1842,1.8321 2.5,5.2998 2.1455,5.6543 -0.1021,0.1021 -0.9385,0.3552 -1.8585,0.5625 l -1.6728,0.3767 -0.7051,-2.0178 c -1.5839,-4.5331 -4.4096,-6.8257 -8.4052,-6.8198 -6.6102,0.01 -10.6035,6.1389 -10.6035,16.2752 0,9.4219 3.1291,15.1843 8.8955,16.3814 4.5699,0.9488 8.5748,-1.7865 10.2097,-6.9731 0.2925,-0.9277 0.6854,-1.6839 0.8733,-1.6805 0.1878,0 1.0615,0.1942 1.9415,0.424 1.9366,0.5058 1.9604,0.8354 0.308,4.25 -1.3836,2.8589 -3.2367,4.7407 -5.908,5.9995 -1.7892,0.8432 -2.5049,0.9929 -5.12,1.0708 -2.2981,0.069 -3.4823,-0.055 -4.8523,-0.5068 z m 39.68,0 c -2.4311,-0.8012 -3.6934,-1.6238 -5.6228,-3.6639 -1.8324,-1.9374 -2.889,-3.8478 -3.9269,-7.0998 -0.9098,-2.8503 -1.2499,-9.9707 -0.6405,-13.4085 1.4973,-8.4467 6.4736,-13.634 13.6025,-14.1793 7.0602,-0.54 12.635,3.9086 14.9365,11.9191 0.9656,3.3605 1.0568,11.2578 0.1681,14.5487 -1.4782,5.474 -4.1668,9.1448 -8.1338,11.1054 -2.2138,1.0942 -2.6798,1.2032 -5.4949,1.2856 -2.3315,0.068 -3.5145,-0.054 -4.8882,-0.5073 z m 7.8689,-3.0945 c 1.7572,-0.7342 3.9619,-2.9256 4.9877,-4.9576 1.3304,-2.6355 1.9035,-5.1428 2.1193,-9.2716 0.429,-8.2099 -2.0297,-14.6756 -6.4434,-16.9443 -2.1566,-1.1085 -6.3513,-1.1667 -8.3345,-0.1156 -4.2273,2.2407 -6.5457,7.7017 -6.5457,15.4187 0,9.0563 2.8886,14.7437 8.2536,16.2505 1.7464,0.4905 4.2639,0.3302 5.963,-0.3797 z m 32.1834,3.2512 c -3.7232,-1.025 -6.4451,-3.3049 -7.7116,-6.4593 -0.7601,-1.8934 -0.7636,-1.9612 -0.8634,-16.7011 l -0.1001,-14.8 h 2.0741 2.074 l 0.1133,14.16 c 0.1107,13.8362 0.1299,14.2017 0.8393,15.9807 1.2509,3.1372 3.9738,4.7393 8.0544,4.7393 4.0807,0 6.8036,-1.6021 8.0545,-4.7393 0.7093,-1.779 0.7285,-2.1445 0.8392,-15.9807 l 0.1133,-14.16 h 2.0741 2.0741 l -0.1002,14.8 c -0.1,14.7399 -0.1032,14.8077 -0.8634,16.7011 -1.2928,3.22 -4.3551,5.7031 -8.0983,6.5665 -1.8879,0.4355 -6.8264,0.3737 -8.5733,-0.1072 z m 81.3486,-0.148 c -0.9304,-0.331 -2.4886,-1.1508 -3.4629,-1.8218 -8.4559,-5.8238 -9.6023,-24.2906 -2.0065,-32.3221 4.0325,-4.2638 10.7796,-5.494 15.9002,-2.8992 1.8477,0.9363 4.2133,3.4053 5.2775,5.5082 0.8308,1.6419 1.5814,3.991 1.3492,4.2231 -0.075,0.075 -0.9175,0.3181 -1.8721,0.54 l -1.7354,0.4034 -0.3953,-1.322 c -0.9916,-3.316 -3.1493,-6.0817 -5.513,-7.0664 -2.9866,-1.2441 -7.2178,-0.2531 -9.6694,2.2647 -3.1432,3.2281 -4.7183,9.7597 -4.0223,16.6797 0.7613,7.5689 3.8286,12.1677 8.8046,13.2007 4.6027,0.9555 8.5568,-1.7303 10.2474,-6.9607 0.2987,-0.924 0.6595,-1.68 0.8018,-1.68 0.1423,0 1.0007,0.1713 1.9075,0.3806 l 1.6486,0.3805 -0.2091,1.1395 c -0.6445,3.5112 -3.6936,7.3217 -7.1296,8.91 -2.4708,1.1421 -7.3432,1.3591 -9.9212,0.4418 z m -272.7086,-18.932 v -18.88 h 2.08 2.08 v 18.88 18.88 h -2.08 -2.08 z m 26.24,1.76 v -17.12 h -5.6 -5.6 v -1.76 -1.76 h 13.28 13.28 v 1.76 1.76 h -5.6 -5.6 v 17.12 17.12 h -2.08 -2.08 z m 35.2,9.208 v -7.912 l -6.08,-10.7858 c -3.344,-5.9322 -6.08,-10.8744 -6.08,-10.9826 0,-0.1083 0.9712,-0.1543 2.1582,-0.1023 l 2.1582,0.095 4.9618,9.0257 c 2.729,4.9641 5.0338,9.0287 5.1218,9.0325 0.088,0 2.2717,-4.0578 4.8526,-9.0256 l 4.6927,-9.0326 2.1073,-0.095 c 1.1591,-0.052 2.1074,-0.027 2.1074,0.055 0,0.083 -2.664,5.0798 -5.92,11.105 l -5.92,10.9547 v 7.7897 7.7897 h -2.08 -2.08 z m 160.64,-10.968 v -18.88 h 3.3338 3.3337 l 8.2663,14.8811 8.2662,14.8812 0.083,-14.8812 0.083,-14.8811 h 2.2369 2.2368 v 18.88 18.88 h -2.1882 -2.1883 l -9.5717,-17.1896 -9.5718,-17.1897 -0.083,17.1897 -0.083,17.1896 h -2.0773 -2.0772 z m 80.64,0 v -18.88 h 2.08 2.08 v 18.88 18.88 h -2.08 -2.08 z m 17.6,0 v -18.88 h 2.08 2.08 v 17.28 17.28 h 8.8 8.8 v 1.6 1.6 h -10.88 -10.88 z" /></svg>