<svg xmlns="http://www.w3.org/2000/svg" width="463" height="149" viewBox="-0.31 -0.067 463 149" overflow="visible"><path d="M114.303 57.605C114.323 25.821 88.756.038 57.189 0 25.633-.028.021 25.721 0 57.502c-.006 13.043 4.295 25.066 11.547 34.721h.01l45.538 56.42 45.603-56.311.016-.022c7.258-9.646 11.581-21.664 11.589-34.705m-32.99 1.601c-.005 13.444-10.828 24.325-24.175 24.312-13.348-.011-24.157-10.912-24.147-24.351C33 45.72 43.82 34.839 57.166 34.854c13.349.012 24.157 10.909 24.147 24.352m70.919-42.874c0-4.68-1.801-6.972-5.311-6.972-3.508 0-5.311 2.292-5.311 6.972v37.633c0 4.68 1.803 7.066 5.311 7.066 3.51 0 5.311-2.387 5.311-7.066V16.332zM147.3 0c9.39 0 15.556 6.399 15.556 17.288v34.575c0 11.939-5.881 18.436-15.935 18.436-10.242 0-15.84-6.401-15.84-18.721V17.002C131.082 6.496 137.058 0 147.3 0m35.773 31.805c5.12 0 6.355-2.864 6.355-10.697 0-7.544-1.519-9.934-6.735-9.934h-3.7v20.631h4.08zM168.657 1.434h15.174c11.189 0 16.124 5.73 16.124 19.484 0 13.18-5.597 20.534-13.847 20.534h-7.115v27.414h-10.336V1.434zm35.676 0h26.949v9.74h-16.61v17.671h11.964v9.742h-11.964v20.152h16.61v10.126h-26.949zm32.133 0h9.295l13.086 40.305c.193.575.951 2.961 1.994 7.165-.852-4.777-1.137-7.927-1.137-9.074V1.434h9.674v67.432h-9.674l-12.615-37.25c-.568-1.72-1.422-4.107-2.182-7.354.76 4.774 1.139 7.927 1.139 9.361v35.243h-9.58V1.434zm60.188 0V28.94h10.341V1.434h10.337v67.431h-10.337V38.684h-10.341v30.181h-10.243V1.434zm48.008 14.898c0-4.68-1.801-6.972-5.311-6.972-3.509 0-5.312 2.292-5.312 6.972v37.633c0 4.68 1.804 7.066 5.312 7.066 3.51 0 5.311-2.387 5.311-7.066V16.332zM339.729 0c9.39 0 15.556 6.399 15.556 17.288v34.575c0 11.939-5.881 18.436-15.934 18.436-10.244 0-15.841-6.401-15.841-18.721V17.002C323.51 6.496 329.488 0 339.729 0m32.191 1.434v52.245c0 4.105 2.369 6.397 5.501 6.397 3.131 0 5.215-2.292 5.215-6.397V1.434h10.529v50.43c0 11.94-5.787 18.435-15.84 18.435-10.243 0-15.936-6.4-15.936-18.721V1.434h10.531zm35.318 48.806c.377 6.782 2.467 10.029 6.828 10.029 3.795 0 6.354-2.579 6.354-6.495 0-5.636-3.795-9.075-9.295-14.615-7.49-7.544-12.803-13.085-12.803-21.966 0-9.743 7.303-16.906 16.029-16.906 8.535 0 14.701 6.208 15.459 16.714l-10.053 1.435c-.381-5.828-1.896-8.406-5.691-8.406-3.225 0-5.5 2.386-5.5 6.208 0 6.114 4.457 10.221 10.338 15.951 7.113 6.971 11.572 12.035 11.572 21.396 0 9.933-6.832 16.81-16.029 16.81-10.055 0-16.598-6.782-17.072-18.625l9.863-1.53zm27.901-48.806h26.938v9.74h-16.598v17.671h11.951v9.742h-11.951v20.152h16.598v10.126h-26.938zM131.082 79.777h13.753l6.734 37.346c.568 3.055.853 6.493.853 10.123 0-3.438.38-6.782.951-10.029l6.449-37.44h13.941v67.431h-9.674v-42.6c0-1.91.188-5.824.76-11.747-.76 4.585-1.234 7.738-1.614 9.551l-8.442 44.795h-5.123l-8.06-44.795c-.949-5.443-1.422-8.693-1.615-9.551.478 5.061.666 8.977.666 11.747v42.6h-9.579V79.777zm49.208 0h26.937v9.742h-16.598v17.67h11.951v9.743h-11.951v20.151h16.598v10.125H180.29zm32.511 0h10.257v57.688h16.027v9.743h-26.284zm45.761 57.689c4.457 0 6.449-3.057 6.449-9.647 0-7.354-2.086-10.219-7.586-10.219h-3.322v19.866h4.459zm-.285-29.609c3.699 0 5.978-3.248 5.978-9.264 0-6.59-2.185-9.076-6.829-9.076h-3.322v18.339h4.173zm-14.416-28.08h13.656c11.098 0 17.264 6.493 17.264 17.575 0 6.78-2.371 11.746-7.209 15.376 5.502 3.151 8.062 8.309 8.062 16.429 0 12.418-5.311 18.053-16.502 18.053h-15.271V79.777zm58.109 14.899c0-4.679-1.803-6.972-5.313-6.972-3.507 0-5.31 2.293-5.31 6.972v37.633c0 4.68 1.803 7.067 5.31 7.067 3.511 0 5.313-2.388 5.313-7.067V94.676zm-4.933-16.332c9.391 0 15.557 6.4 15.557 17.288v34.577c0 11.939-5.881 18.434-15.937 18.434-10.241 0-15.839-6.401-15.839-18.72V95.346c0-10.507 5.978-17.002 16.219-17.002m32.453 1.433v52.245c0 4.106 2.371 6.398 5.502 6.398s5.215-2.292 5.215-6.398V79.777h10.529v50.43c0 11.94-5.787 18.436-15.84 18.436-10.242 0-15.934-6.401-15.934-18.722V79.777h10.528zm37.828 29.321h4.08c5.025 0 6.355-2.771 6.355-10.22 0-7.164-1.709-9.361-6.735-9.361h-3.7v19.581zm0 38.11H356.98V79.777h15.176c11.191 0 16.125 5.634 16.125 19.484 0 8.022-1.709 13.18-6.547 16.619l7.586 31.328h-10.715l-6.355-28.367h-4.932v28.367zM394.8 79.777h9.295l13.09 40.305c.189.574.947 2.961 1.992 7.164-.854-4.775-1.139-7.927-1.139-9.074V79.777h9.674v67.431h-9.674l-12.615-37.25c-.568-1.72-1.42-4.105-2.18-7.354.76 4.774 1.137 7.927 1.137 9.36v35.243h-9.58v-67.43zm40.379 0h26.938v9.742h-16.598v17.67h11.951v9.743h-11.951v20.151h16.598v10.125h-26.938z"/></svg>